<svg width="1024" height="1024" viewBox="0 0 1024 1024" fill="none" xmlns="http://www.w3.org/2000/svg">
  <defs>
    <linearGradient id="icon-bg" x1="156" y1="124" x2="868" y2="932" gradientUnits="userSpaceOnUse">
      <stop offset="0" stop-color="#111217"/>
      <stop offset="0.52" stop-color="#050608"/>
      <stop offset="1" stop-color="#151922"/>
    </linearGradient>
    <linearGradient id="icon-panel" x1="188" y1="344" x2="836" y2="684" gradientUnits="userSpaceOnUse">
      <stop offset="0" stop-color="#06070A"/>
      <stop offset="0.5" stop-color="#0B0E14"/>
      <stop offset="1" stop-color="#07090D"/>
    </linearGradient>
    <linearGradient id="icon-metal" x1="254" y1="374" x2="770" y2="654" gradientUnits="userSpaceOnUse">
      <stop offset="0" stop-color="#F7F9FC"/>
      <stop offset="0.3" stop-color="#C8D0DA"/>
      <stop offset="0.58" stop-color="#FFFFFF"/>
      <stop offset="0.82" stop-color="#A7B0BB"/>
      <stop offset="1" stop-color="#EEF2F7"/>
    </linearGradient>
    <linearGradient id="icon-sheen" x1="276" y1="324" x2="748" y2="708" gradientUnits="userSpaceOnUse">
      <stop offset="0" stop-color="#FFFFFF" stop-opacity="0.72"/>
      <stop offset="0.5" stop-color="#FFFFFF" stop-opacity="0"/>
      <stop offset="1" stop-color="#FFFFFF" stop-opacity="0.18"/>
    </linearGradient>
    <filter id="icon-glow" x="126" y="250" width="772" height="524" filterUnits="userSpaceOnUse" color-interpolation-filters="sRGB">
      <feGaussianBlur stdDeviation="20" result="blur"/>
      <feColorMatrix in="blur" type="matrix" values="0 0 0 0 0.82 0 0 0 0 0.86 0 0 0 0 0.92 0 0 0 0.16 0"/>
    </filter>
  </defs>

  <rect width="1024" height="1024" rx="236" fill="url(#icon-bg)"/>
  <rect x="36" y="36" width="952" height="952" rx="200" stroke="rgba(255,255,255,0.08)" stroke-width="10"/>
  <rect x="92" y="312" width="840" height="400" rx="96" fill="#020306"/>
  <rect x="110" y="330" width="804" height="364" rx="82" fill="url(#icon-panel)" stroke="#1A1D22" stroke-width="8"/>
  <path d="M216 438H808" stroke="#11151C" stroke-width="10" stroke-linecap="round"/>
  <path d="M216 590H808" stroke="#11151C" stroke-width="10" stroke-linecap="round"/>

  <g filter="url(#icon-glow)" opacity="0.28">
    <path d="M196 420H294V454H230V550H294V518H266V486H328V584H196V420Z" fill="#DDE3EA"/>
    <path fill-rule="evenodd" clip-rule="evenodd" d="M318 420H412V584H318V420ZM350 454V550H380V454H350Z" fill="#DDE3EA"/>
    <path d="M432 420H466V584H432V420Z" fill="#DDE3EA"/>
    <path d="M466 420H548V454H466V420Z" fill="#DDE3EA"/>
    <path d="M514 454H548V498H514V454Z" fill="#DDE3EA"/>
    <path d="M466 498H536V532H466V498Z" fill="#DDE3EA"/>
    <path d="M506 532H552L516 584H470L506 532Z" fill="#DDE3EA"/>
    <path d="M566 420H600V584H566V420Z" fill="#DDE3EA"/>
    <path d="M602 484H648L722 420H676L602 484Z" fill="#DDE3EA"/>
    <path d="M602 520H648L722 584H676L602 520Z" fill="#DDE3EA"/>
    <path d="M740 420H774V584H740V420Z" fill="#DDE3EA"/>
    <path d="M836 420H870V584H836V420Z" fill="#DDE3EA"/>
    <path d="M774 486H836V520H774V486Z" fill="#DDE3EA"/>
  </g>

  <path d="M196 420H294V454H230V550H294V518H266V486H328V584H196V420Z" fill="url(#icon-metal)"/>
  <path fill-rule="evenodd" clip-rule="evenodd" d="M318 420H412V584H318V420ZM350 454V550H380V454H350Z" fill="url(#icon-metal)"/>
  <path d="M432 420H466V584H432V420Z" fill="url(#icon-metal)"/>
  <path d="M466 420H548V454H466V420Z" fill="url(#icon-metal)"/>
  <path d="M514 454H548V498H514V454Z" fill="url(#icon-metal)"/>
  <path d="M466 498H536V532H466V498Z" fill="url(#icon-metal)"/>
  <path d="M506 532H552L516 584H470L506 532Z" fill="url(#icon-metal)"/>
  <path d="M566 420H600V584H566V420Z" fill="url(#icon-metal)"/>
  <path d="M602 484H648L722 420H676L602 484Z" fill="url(#icon-metal)"/>
  <path d="M602 520H648L722 584H676L602 520Z" fill="url(#icon-metal)"/>
  <path d="M740 420H774V584H740V420Z" fill="url(#icon-metal)"/>
  <path d="M836 420H870V584H836V420Z" fill="url(#icon-metal)"/>
  <path d="M774 486H836V520H774V486Z" fill="url(#icon-metal)"/>

  <path d="M236 400H788L754 440H270L236 400Z" fill="url(#icon-sheen)" opacity="0.78"/>
  <path d="M250 620H774" stroke="#12161B" stroke-width="6" stroke-linecap="round"/>
</svg>
